<?xml version="1.0" encoding="iso-8859-1"?>
<!-- Generator: Adobe Illustrator 16.0.0, SVG Export Plug-In . SVG Version: 6.00 Build 0)  -->
<!DOCTYPE svg PUBLIC "-//W3C//DTD SVG 1.1//EN" "http://www.w3.org/Graphics/SVG/1.1/DTD/svg11.dtd">
<svg xmlns="http://www.w3.org/2000/svg" xmlns:xlink="http://www.w3.org/1999/xlink" version="1.1" id="Capa_1" x="0px" y="0px" width="512px" height="512px" viewBox="0 0 525.134 525.134" style="enable-background:new 0 0 525.134 525.134;" xml:space="preserve">
<g>
	<path d="M261.372,525.134c47.328,0,144.231-17.262,144.231-207.983C405.603,113.947,231.086,0,231.086,0   c31.48,189.205-111.556,215.95-111.556,356.997S210.7,525.134,261.372,525.134z M360.181,415.596   c-8.157,0-14.774-6.616-14.774-14.773s6.617-14.774,14.774-14.774c8.156,0,14.773,6.617,14.773,14.774   S368.348,415.596,360.181,415.596z M313.774,147.76c4.198-3.194,10.203-2.352,13.396,1.855   c2.63,3.471,64.298,86.426,52.087,202.008c-0.516,4.915-4.666,8.558-9.496,8.558c-0.335,0-0.679-0.019-1.014-0.048   c-5.25-0.555-9.056-5.259-8.511-10.519c11.427-108.152-47.717-187.664-48.319-188.458   C308.735,156.949,309.567,150.954,313.774,147.76z" fill="#FFFFFF"/>
</g>
<g>
</g>
<g>
</g>
<g>
</g>
<g>
</g>
<g>
</g>
<g>
</g>
<g>
</g>
<g>
</g>
<g>
</g>
<g>
</g>
<g>
</g>
<g>
</g>
<g>
</g>
<g>
</g>
<g>
</g>
</svg>
