<?xml version="1.0" encoding="iso-8859-1"?>
<!-- Generator: Adobe Illustrator 16.0.0, SVG Export Plug-In . SVG Version: 6.00 Build 0)  -->
<!DOCTYPE svg PUBLIC "-//W3C//DTD SVG 1.1//EN" "http://www.w3.org/Graphics/SVG/1.1/DTD/svg11.dtd">
<svg xmlns="http://www.w3.org/2000/svg" xmlns:xlink="http://www.w3.org/1999/xlink" version="1.1" id="Capa_1" x="0px" y="0px" width="512px" height="512px" viewBox="0 0 567.84 567.84" style="enable-background:new 0 0 567.84 567.84;" xml:space="preserve">
<g>
	<path d="M88.769,482.337l125.364-33.592l68.754,119.09l66.392-114.998l131.857,35.334l-34.109-127.287l120.812-69.748   l-115.791-66.852l36.375-135.769L358.25,123.399L287.01,0.005l-71.012,123.002L87.306,88.525l34.368,128.252L0,287.005   l122.199,70.551L88.769,482.337z M284.943,126.89c89.438,0,162.189,72.751,162.189,162.18c0,89.43-72.752,162.18-162.189,162.18   c-89.428,0-162.18-72.75-162.18-162.18C122.764,199.641,195.525,126.89,284.943,126.89z" fill="#FFFFFF"/>
	<path d="M284.943,432.124c78.881,0,143.064-64.174,143.064-143.055s-64.184-143.055-143.064-143.055   s-143.055,64.174-143.055,143.055S206.062,432.124,284.943,432.124z" fill="#FFFFFF"/>
</g>
<g>
</g>
<g>
</g>
<g>
</g>
<g>
</g>
<g>
</g>
<g>
</g>
<g>
</g>
<g>
</g>
<g>
</g>
<g>
</g>
<g>
</g>
<g>
</g>
<g>
</g>
<g>
</g>
<g>
</g>
</svg>
