<?xml version="1.0" encoding="iso-8859-1"?>
<!-- Generator: Adobe Illustrator 16.0.0, SVG Export Plug-In . SVG Version: 6.00 Build 0)  -->
<!DOCTYPE svg PUBLIC "-//W3C//DTD SVG 1.1//EN" "http://www.w3.org/Graphics/SVG/1.1/DTD/svg11.dtd">
<svg xmlns="http://www.w3.org/2000/svg" xmlns:xlink="http://www.w3.org/1999/xlink" version="1.1" id="Capa_1" x="0px" y="0px" width="512px" height="512px" viewBox="0 0 566.253 566.253" style="enable-background:new 0 0 566.253 566.253;" xml:space="preserve">
<g>
	<path d="M226.689,369.428c-29.08-37.562-77.208-5.039-108.095-68.353c0,0-30.466,72.12,11.427,126.234   c41.894,54.104,82.792,24.471,87.478,20.847c0.229-0.172,4.341-1.932,9.562-10.548c11.437,6.254,26.603,11.103,46.598,12.308   v116.337h19.125v-116.48c19.766-1.664,34.521-7.028,45.584-13.589c5.604,9.802,10.137,11.791,10.376,11.982   c4.686,3.624,45.584,33.258,87.478-20.847c41.893-54.104,11.427-126.234,11.427-126.234   c-30.887,63.304-79.015,30.791-108.095,68.353c-13.578,17.538-13.406,34.979-8.969,49.046   c-8.654,5.556-20.847,10.328-37.791,12.011v-95.463c26.679-2.237,44.273-11.197,55.835-20.798c0.028,0.019,0.115,0.058,0.124,0.066   c4.686,3.625,45.585,33.259,87.479-20.846c41.893-54.105,11.427-126.235,11.427-126.235   c-30.887,63.304-79.015,30.792-108.095,68.353c-16.83,21.735-12.651,43.433-5.24,58.589c0.822,1.913,1.626,3.586,2.42,5.164   c-8.712,7.268-22.587,14.315-43.949,16.429V210.709c38.221-3.213,57.958-20.148,67.645-33.105c1.722,0.927,2.764,1.157,2.879,1.214   c5.335,2.572,51.513,23.017,81.204-38.633c29.691-61.659-15.156-125.842-15.156-125.842c-17.002,68.362-70.858,46.598-91.466,89.39   c-11.924,24.776-3.309,45.116,7.096,58.398c0.545,0.774,1.042,1.367,1.568,2.065c-6.264,9.275-21.238,24.002-53.779,27.215V86.072   c12.756-5.451,22.108-22.09,22.108-42.008C314.893,19.728,301.027,0,283.92,0c-17.107,0-30.973,19.728-30.973,44.064   c0,19.192,8.673,35.343,20.712,41.396v106.316c-32.398-2.247-48.339-15.654-55.711-25.274c1.062-1.329,2.152-2.725,3.309-4.36   c10.404-13.282,19.02-33.622,7.096-58.398c-20.607-42.792-74.454-21.038-91.465-89.39c0,0-44.839,64.183-15.157,125.842   c29.691,61.659,75.869,41.205,81.205,38.632c0.029-0.009,0.172-0.057,0.296-0.096c10.299,13.177,31.088,29.759,70.418,32.13   v105.226c-21.573-1.492-35.812-7.947-45.125-14.938c1.109-2.036,2.247-4.283,3.404-6.999c7.401-15.157,11.59-36.845-5.24-58.59   c-29.08-37.562-77.208-5.04-108.095-68.353c0,0-30.466,72.12,11.427,126.234c38.767,50.06,76.615,28.468,85.776,22.08   c12.087,9.505,30.485,17.996,57.863,19.65v95.664c-16.983-1.177-29.472-5.413-38.556-10.586   C240.077,405.89,240.832,387.702,226.689,369.428z" fill="#FFFFFF"/>
</g>
<g>
</g>
<g>
</g>
<g>
</g>
<g>
</g>
<g>
</g>
<g>
</g>
<g>
</g>
<g>
</g>
<g>
</g>
<g>
</g>
<g>
</g>
<g>
</g>
<g>
</g>
<g>
</g>
<g>
</g>
</svg>
