<?xml version="1.0" encoding="iso-8859-1"?>
<!-- Generator: Adobe Illustrator 16.0.0, SVG Export Plug-In . SVG Version: 6.00 Build 0)  -->
<!DOCTYPE svg PUBLIC "-//W3C//DTD SVG 1.1//EN" "http://www.w3.org/Graphics/SVG/1.1/DTD/svg11.dtd">
<svg xmlns="http://www.w3.org/2000/svg" xmlns:xlink="http://www.w3.org/1999/xlink" version="1.1" id="Capa_1" x="0px" y="0px" width="512px" height="512px" viewBox="0 0 541.865 541.865" style="enable-background:new 0 0 541.865 541.865;" xml:space="preserve">
<g>
	<path d="M452.618,238.258c-16.753,0-32.387,4.725-45.794,12.787l-37.646-45.949c-1.828-2.207-4.532-3.488-7.4-3.488h-7.173v-9.564   h25.504h4.781c9.67,0,17.528-7.862,17.528-17.528v-3.182c0-9.678-7.862-17.536-17.528-17.536h-70.123   c-9.678,0-17.535,7.862-17.535,17.528v3.182c0,0.363,0.086,0.706,0.105,1.061c-0.008,0.192-0.105,0.355-0.105,0.534v3.182   c0,7.046,5.708,12.758,12.745,12.758h4.782h30.286v9.564H156.888l17.136-38.25h51.486h4.782c10.547,0,19.127-8.576,19.127-19.127   s-8.58-19.127-19.127-19.127h-57.377c-10.547,0-19.127,8.576-19.127,19.127c0,0.812,0.143,1.595,0.241,2.391   c-0.135,0.775-0.241,1.567-0.241,2.391c0,2.831,0.853,5.459,2.264,7.679l-38.617,86.202c-8.874-2.966-18.331-4.639-28.189-4.639   C40.037,238.254,0,278.291,0,327.5c0,49.21,40.037,89.259,89.246,89.259s89.246-40.037,89.246-89.246   c0-32.558-17.585-61.016-43.693-76.606l9.947-22.183l66.65,82.2c-3.116,5.088-5.01,10.996-5.01,17.385   c0,16.73,12.354,30.632,28.399,33.084v17.23h-9.284c-5.333,0-9.657,4.323-9.657,9.657c0,5.333,4.323,9.657,9.657,9.657h28.353   c5.333,0,9.657-4.323,9.657-9.657c0-5.333-4.322-9.657-9.657-9.657h-9.283V361.3c2.649-0.459,4.843-1.084,4.843-1.084   c11.521-3.471,20.481-12.871,23.093-24.736h91.266c4.057,45.488,42.322,81.282,88.847,81.282c49.209,0,89.246-40.037,89.246-89.246   C541.864,278.307,501.827,238.258,452.618,238.258z M159.364,327.512c0,38.661-31.449,70.123-70.119,70.123   s-70.123-31.462-70.123-70.123c0-38.662,31.461-70.123,70.123-70.123c7.075,0,13.892,1.069,20.339,3.031l-28.67,63.983   c-2.162,4.818,0,10.47,4.818,12.632c1.273,0.575,2.591,0.84,3.9,0.84c3.652,0,7.144-2.104,8.731-5.658l28.564-63.742   C146.398,280.943,159.364,302.726,159.364,327.512z M435.609,316.353h-52.143c2.437-15.157,9.694-28.699,20.212-38.968   L435.609,316.353z M162.885,220.73h176.831l-82.955,78.753c0,0-5.438-3.458-12.386-4.286v-27.448h9.564   c5.279,0,9.563-4.284,9.563-9.564c0-5.279-4.284-9.563-9.563-9.563h-28.688c-5.28,0-9.563,4.284-9.563,9.563   c0,5.28,4.283,9.564,9.563,9.564h9.564v27.448c-5.399,0.844-9.256,2.834-9.256,2.834L162.885,220.73z M262.535,335.48   c-2.085,6.577-6.854,11.963-13.121,14.704c0,0-2.113,0.854-4.843,1.454v-20.439c0-2.703-2.191-4.894-4.894-4.894   s-4.893,2.19-4.893,4.894v20.467c-10.754-2.332-18.84-11.922-18.84-23.358c0-3.337,0.697-6.503,1.93-9.392   c2.619-6.101,7.744-10.824,14.039-13.053c2.497-0.889,5.145-1.465,7.936-1.465c3.403,0,6.626,0.734,9.564,2.028   c0.008,0,0.02,0.008,0.029,0.008c3.022,1.33,5.679,3.288,7.898,5.692c1.188,1.281,2.207,2.705,3.089,4.227   c2.057,3.529,3.329,7.585,3.329,11.954C263.759,330.821,263.262,333.203,262.535,335.48z M271.018,316.353   c-1.559-4.035-3.863-7.68-6.761-10.796l89.353-84.827h3.635l34.309,41.861c-14.745,13.876-24.766,32.665-27.418,53.762H271.018z    M452.618,397.635c-35.974,0-65.668-27.234-69.646-62.155H455.8c3.701,0,7.059-2.134,8.646-5.471   c1.587-3.338,1.102-7.295-1.244-10.155l-44.158-53.885c9.976-5.459,21.42-8.576,33.574-8.576c38.67,0,70.123,31.461,70.123,70.123   S491.289,397.635,452.618,397.635z" fill="#FFFFFF"/>
</g>
<g>
</g>
<g>
</g>
<g>
</g>
<g>
</g>
<g>
</g>
<g>
</g>
<g>
</g>
<g>
</g>
<g>
</g>
<g>
</g>
<g>
</g>
<g>
</g>
<g>
</g>
<g>
</g>
<g>
</g>
</svg>
