<?xml version="1.0" encoding="iso-8859-1"?>
<!-- Generator: Adobe Illustrator 16.0.0, SVG Export Plug-In . SVG Version: 6.00 Build 0)  -->
<!DOCTYPE svg PUBLIC "-//W3C//DTD SVG 1.1//EN" "http://www.w3.org/Graphics/SVG/1.1/DTD/svg11.dtd">
<svg xmlns="http://www.w3.org/2000/svg" xmlns:xlink="http://www.w3.org/1999/xlink" version="1.1" id="Capa_1" x="0px" y="0px" width="512px" height="512px" viewBox="0 0 522.473 522.473" style="enable-background:new 0 0 522.473 522.473;" xml:space="preserve">
<g>
	<path d="M271.292,215.055c-14.296-31.738,1.549-88.807-23.524-106.086c-25.072-17.28-82.065-17.49-139.268,76.213   c-57.203,93.703,41.454,158.7,41.454,158.7s68.143,25.493,112.856,56.017c44.715,30.523,85.986,114.702,128.826,121.339   s98.006-12.68,98.273-77.141c0.269-64.461-75.371-108.19-126.396-137.796S285.587,246.793,271.292,215.055z" fill="#FFFFFF"/>
	<path d="M147.849,88.036c6.158,8.578,18.111,10.538,26.688,4.38l15.539-11.15c8.578-6.158,10.538-18.111,4.38-26.689L160.998,7.97   c-6.159-8.578-18.112-10.538-26.689-4.38L118.77,14.74c-8.578,6.158-10.538,18.111-4.38,26.689L147.849,88.036z" fill="#FFFFFF"/>
	<path d="M96.958,138.163c7.746,7.181,19.852,6.722,27.023-1.033l12.996-14.028c7.181-7.746,6.722-19.852-1.033-27.023l-28.057-26   c-7.746-7.182-19.852-6.723-27.023,1.033L67.868,85.139c-7.182,7.745-6.723,19.852,1.033,27.023L96.958,138.163z" fill="#FFFFFF"/>
	<path d="M49.25,187.257l16.974,8.817c9.371,4.867,20.922,1.224,25.79-8.147l8.826-16.974c4.867-9.371,1.224-20.923-8.147-25.79   l-16.973-8.826c-9.372-4.867-20.923-1.224-25.791,8.147l-8.816,16.973C36.226,170.838,39.879,182.39,49.25,187.257z" fill="#FFFFFF"/>
	<path d="M51.583,259.712l9.562,0.048c10.567,0.057,19.173-8.463,19.23-19.02l0.105-19.125c0.058-10.566-8.463-19.173-19.02-19.23   l-9.562-0.048c-10.567-0.057-19.173,8.463-19.23,19.02l-0.105,19.125C32.506,251.048,41.026,259.654,51.583,259.712z" fill="#FFFFFF"/>
	<path d="M63.68,268.232l-8.023,3.395c-8.864,3.749-13.856,11.944-11.169,18.303l4.877,11.514   c2.697,6.358,12.058,8.472,20.913,4.714l8.023-3.395c8.865-3.748,13.856-11.943,11.169-18.303l-4.877-11.514   C81.906,266.588,72.544,264.483,63.68,268.232z" fill="#FFFFFF"/>
</g>
<g>
</g>
<g>
</g>
<g>
</g>
<g>
</g>
<g>
</g>
<g>
</g>
<g>
</g>
<g>
</g>
<g>
</g>
<g>
</g>
<g>
</g>
<g>
</g>
<g>
</g>
<g>
</g>
<g>
</g>
</svg>
